<?xml version="1.0" encoding="UTF-8" standalone="no"?>
<!-- Created with Inkscape (http://www.inkscape.org/) -->

<svg
   xmlns:dc="http://purl.org/dc/elements/1.1/"
   xmlns:cc="http://creativecommons.org/ns#"
   xmlns:rdf="http://www.w3.org/1999/02/22-rdf-syntax-ns#"
   xmlns:svg="http://www.w3.org/2000/svg"
   xmlns="http://www.w3.org/2000/svg"
   xmlns:sodipodi="http://sodipodi.sourceforge.net/DTD/sodipodi-0.dtd"
   xmlns:inkscape="http://www.inkscape.org/namespaces/inkscape"
   width="768"
   height="126"
   viewBox="0 0 203.19999 33.337501"
   version="1.1"
   id="svg8"
   inkscape:version="0.92.4 (5da689c313, 2019-01-14)"
   sodipodi:docname="banner.svg">
  <defs
     id="defs2" />
  <sodipodi:namedview
     id="base"
     pagecolor="#ffffff"
     bordercolor="#666666"
     borderopacity="1.0"
     inkscape:pageopacity="0.0"
     inkscape:pageshadow="2"
     inkscape:zoom="0.35"
     inkscape:cx="100"
     inkscape:cy="205.71429"
     inkscape:document-units="mm"
     inkscape:current-layer="layer1"
     showgrid="false"
     units="px"
     inkscape:window-width="1850"
     inkscape:window-height="1016"
     inkscape:window-x="70"
     inkscape:window-y="27"
     inkscape:window-maximized="1" />
  <metadata
     id="metadata5">
    <rdf:RDF>
      <cc:Work
         rdf:about="">
        <dc:format>image/svg+xml</dc:format>
        <dc:type
           rdf:resource="http://purl.org/dc/dcmitype/StillImage" />
        <dc:title></dc:title>
      </cc:Work>
    </rdf:RDF>
  </metadata>
  <g
     inkscape:label="Layer 1"
     inkscape:groupmode="layer"
     id="layer1"
     transform="translate(0,-263.66247)">
    <g
       aria-label="EMICHAN"
       transform="matrix(1.0464383,0,0,1.0464383,969.0147,665.33139)"
       style="font-style:normal;font-weight:normal;font-size:40px;line-height:1.25;font-family:sans-serif;letter-spacing:0px;word-spacing:0px;fill:#7fdd57;fill-opacity:1;stroke:none"
       id="flowRoot815">
      <path
         d="m -908.85227,-376.44386 h -9.32 v 5.04 h 8.84 v 6.64 h -8.84 v 5.2 h 9.32 v 6.64 h -17.16 v -30.16 h 17.16 v 6.64 z"
         style="font-style:normal;font-variant:normal;font-weight:normal;font-stretch:normal;font-family:Futura-Bold;-inkscape-font-specification:Futura-Bold;fill:#7fdd57;fill-opacity:1"
         id="path842" />
      <path
         d="m -905.78102,-352.92386 5.12,-30.16 h 7.72 l 6.12,16.12 6.48,-16.12 h 7.8 l 4.56,30.16 h -7.84 l -2.2,-17.36 h -0.08 l -7.24,17.36 h -3.12 l -6.92,-17.36 h -0.08 l -2.52,17.36 h -7.8 z"
         style="font-style:normal;font-variant:normal;font-weight:normal;font-stretch:normal;font-family:Futura-Bold;-inkscape-font-specification:Futura-Bold;fill:#7fdd57;fill-opacity:1"
         id="path844" />
      <path
         d="m -856.84414,-383.08386 v 30.16 h -7.84 v -30.16 h 7.84 z"
         style="font-style:normal;font-variant:normal;font-weight:normal;font-stretch:normal;font-family:Futura-Bold;-inkscape-font-specification:Futura-Bold;fill:#7fdd57;fill-opacity:1"
         id="path846" />
      <path
         d="m -830.15539,-382.36386 v 9.4 q -1.2,-1.6 -3.04,-2.44 -1.84,-0.84 -3.84,-0.84 -3.6,0 -5.84,2.44 -2.2,2.4 -2.2,5.92 0,3.56 2.24,5.88 2.28,2.32 5.92,2.32 1.92,0 3.72,-0.84 1.8,-0.88 3.04,-2.36 v 9.36 q -1.08,0.36 -2.04,0.6 -0.96,0.28 -1.88,0.48 -0.72,0.16 -1.48,0.24 -0.72,0.08 -1.52,0.08 -3.16,0 -6.08,-1.12 -2.88,-1.16 -5.24,-3.28 -2.48,-2.24 -3.68,-5.12 -1.16,-2.92 -1.16,-6.28 0,-3.08 1.12,-5.96 1.16,-2.88 3.32,-5.08 2.16,-2.2 5.08,-3.48 2.92,-1.32 6.04,-1.4 0.08,0 0.16,0 0.12,0 0.2,0 1.88,0 3.64,0.4 1.8,0.4 3.52,1.12 z"
         style="font-style:normal;font-variant:normal;font-weight:normal;font-stretch:normal;font-family:Futura-Bold;-inkscape-font-specification:Futura-Bold;fill:#7fdd57;fill-opacity:1"
         id="path848" />
      <path
         d="m -817.46914,-371.44386 h 11.32 v -11.64 h 7.84 v 30.16 h -7.84 v -12.36 h -11.32 v 12.36 h -7.84 v -30.16 h 7.84 v 11.64 z"
         style="font-style:normal;font-variant:normal;font-weight:normal;font-stretch:normal;font-family:Futura-Bold;-inkscape-font-specification:Futura-Bold;fill:#7fdd57;fill-opacity:1"
         id="path850" />
      <path
         d="m -774.71977,-358.16386 h -10.8 l -2.08,5.24 h -8.32 l 11.6,-30.16 h 8.56 l 11.36,30.16 h -8.36 l -1.96,-5.24 z m -2.12,-6 -3.2,-9.6 h -0.08 l -3.24,9.6 h 6.52 z"
         style="font-style:normal;font-variant:normal;font-weight:normal;font-stretch:normal;font-family:Futura-Bold;-inkscape-font-specification:Futura-Bold;fill:#7fdd57;fill-opacity:1"
         id="path852" />
      <path
         d="m -761.94977,-352.92386 v -30.16 h 7.84 l 14.36,18.44 h 0.08 v -18.44 h 7.84 v 30.16 h -7.84 l -14.36,-18.48 h -0.08 v 18.48 h -7.84 z"
         style="font-style:normal;font-variant:normal;font-weight:normal;font-stretch:normal;font-family:Futura-Bold;-inkscape-font-specification:Futura-Bold;fill:#7fdd57;fill-opacity:1"
         id="path854" />
    </g>
  </g>
</svg>
